<?xml version="1.0" encoding="utf-8"?>
<!-- Generator: Adobe Illustrator 23.0.0, SVG Export Plug-In . SVG Version: 6.00 Build 0)  -->
<svg version="1.1" xmlns="http://www.w3.org/2000/svg" xmlns:xlink="http://www.w3.org/1999/xlink" x="0px" y="0px"
	 viewBox="0 0 180 19" style="enable-background:new 0 0 180 19;" xml:space="preserve">
<style type="text/css">
	.st0{fill:#FFFFFF;}
	.st1{fill:#F2F2F2;}
</style>
<g id="图层_1">
</g>
<g id="文字">
	<g>
		<g>
			<path class="st0" d="M59.72,10.39v3.79h-1.17V4.15h2.76c1.07,0,1.9,0.26,2.49,0.78c0.59,0.52,0.88,1.26,0.88,2.21
				s-0.33,1.73-0.98,2.34c-0.65,0.61-1.54,0.91-2.65,0.91H59.72z M59.72,5.21v4.11h1.23c0.81,0,1.43-0.19,1.86-0.56
				c0.43-0.37,0.64-0.89,0.64-1.57c0-1.32-0.78-1.99-2.35-1.99H59.72z"/>
			<path class="st0" d="M70.15,8.18c-0.2-0.15-0.49-0.23-0.87-0.23c-0.49,0-0.9,0.23-1.23,0.69c-0.33,0.46-0.49,1.09-0.49,1.89v3.65
				h-1.15V7.01h1.15v1.48h0.03c0.16-0.5,0.41-0.9,0.75-1.18c0.34-0.28,0.71-0.42,1.13-0.42c0.3,0,0.53,0.03,0.69,0.1V8.18z"/>
			<path class="st0" d="M74.39,14.34c-1.06,0-1.9-0.33-2.54-1s-0.95-1.56-0.95-2.66c0-1.2,0.33-2.14,0.99-2.82
				c0.66-0.68,1.55-1.01,2.66-1.01c1.07,0,1.9,0.33,2.5,0.99c0.6,0.66,0.9,1.57,0.9,2.73c0,1.14-0.32,2.06-0.97,2.75
				C76.34,14,75.47,14.34,74.39,14.34z M74.47,7.81c-0.74,0-1.32,0.25-1.75,0.75c-0.43,0.5-0.64,1.19-0.64,2.07
				c0,0.85,0.22,1.52,0.65,2.01c0.43,0.49,1.01,0.73,1.74,0.73c0.74,0,1.31-0.24,1.71-0.72c0.4-0.48,0.6-1.16,0.6-2.05
				c0-0.89-0.2-1.58-0.6-2.07C75.78,8.05,75.21,7.81,74.47,7.81z"/>
			<path class="st0" d="M80.93,13.88c0,1.17-0.24,2.08-0.71,2.72c-0.47,0.64-1.15,0.96-2.03,0.96c-0.33,0-0.64-0.07-0.95-0.22v-1.07
				c0.35,0.21,0.67,0.31,0.98,0.31c1.04,0,1.57-0.83,1.57-2.5V7.01h1.15V13.88z M80.37,5.2c-0.21,0-0.38-0.07-0.52-0.21
				c-0.14-0.14-0.22-0.32-0.22-0.53s0.07-0.39,0.22-0.54c0.14-0.14,0.32-0.21,0.52-0.21c0.21,0,0.39,0.07,0.54,0.21
				c0.15,0.14,0.22,0.32,0.22,0.54c0,0.21-0.07,0.38-0.22,0.52S80.58,5.2,80.37,5.2z"/>
			<path class="st0" d="M89.01,10.88h-5.06c0.02,0.8,0.23,1.41,0.64,1.85c0.41,0.43,0.97,0.65,1.69,0.65c0.81,0,1.55-0.27,2.22-0.8
				v1.08c-0.63,0.46-1.46,0.69-2.5,0.69c-1.01,0-1.81-0.33-2.39-0.98s-0.87-1.57-0.87-2.75c0-1.11,0.32-2.02,0.95-2.72
				c0.63-0.7,1.42-1.05,2.35-1.05s1.66,0.3,2.18,0.91c0.51,0.61,0.77,1.45,0.77,2.52V10.88z M87.84,9.91c0-0.66-0.16-1.18-0.48-1.55
				C87.04,8,86.61,7.81,86.05,7.81c-0.54,0-1,0.19-1.38,0.58c-0.38,0.39-0.61,0.89-0.7,1.52H87.84z"/>
			<path class="st0" d="M95.63,13.85c-0.55,0.33-1.2,0.5-1.96,0.5c-1.02,0-1.85-0.33-2.47-1c-0.63-0.66-0.94-1.53-0.94-2.58
				c0-1.18,0.34-2.13,1.01-2.84c0.68-0.72,1.58-1.07,2.71-1.07c0.63,0,1.18,0.12,1.66,0.35v1.17c-0.53-0.37-1.1-0.56-1.71-0.56
				c-0.73,0-1.33,0.26-1.8,0.79c-0.47,0.52-0.7,1.21-0.7,2.07c0,0.84,0.22,1.5,0.66,1.99c0.44,0.48,1.03,0.73,1.77,0.73
				c0.63,0,1.21-0.21,1.76-0.62V13.85z"/>
			<path class="st0" d="M100.69,14.11c-0.27,0.15-0.63,0.22-1.07,0.22c-1.25,0-1.88-0.7-1.88-2.1V7.99H96.5V7.01h1.23V5.27
				l1.15-0.37v2.12h1.8v0.98h-1.8v4.04c0,0.48,0.08,0.82,0.25,1.03c0.16,0.21,0.43,0.31,0.81,0.31c0.29,0,0.54-0.08,0.75-0.24V14.11
				z"/>
			<path class="st0" d="M113.12,13.76c-0.74,0.39-1.66,0.59-2.77,0.59c-1.43,0-2.57-0.46-3.43-1.38c-0.86-0.92-1.29-2.12-1.29-3.62
				c0-1.6,0.48-2.9,1.45-3.89c0.96-0.99,2.19-1.48,3.67-1.48c0.95,0,1.74,0.14,2.36,0.41v1.25c-0.72-0.4-1.51-0.6-2.38-0.6
				c-1.15,0-2.08,0.38-2.8,1.15c-0.72,0.77-1.07,1.8-1.07,3.08c0,1.22,0.33,2.19,1,2.92c0.67,0.72,1.55,1.09,2.63,1.09
				c1.01,0,1.88-0.22,2.62-0.67V13.76z"/>
			<path class="st0" d="M120.37,14.18h-5.2V4.15h1.18v8.97h4.03V14.18z"/>
			<path class="st0" d="M125.95,14.34c-1.42,0-2.56-0.47-3.42-1.41c-0.86-0.94-1.28-2.16-1.28-3.66c0-1.61,0.44-2.9,1.31-3.86
				c0.87-0.96,2.06-1.44,3.56-1.44c1.38,0,2.5,0.47,3.35,1.4c0.85,0.93,1.27,2.15,1.27,3.66c0,1.64-0.43,2.93-1.3,3.88
				S127.4,14.34,125.95,14.34z M126.03,5.04c-1.05,0-1.91,0.38-2.57,1.14c-0.66,0.76-0.99,1.76-0.99,2.99
				c0,1.24,0.32,2.23,0.96,2.98c0.64,0.75,1.48,1.13,2.51,1.13c1.1,0,1.97-0.36,2.6-1.08c0.63-0.72,0.95-1.72,0.95-3.01
				c0-1.32-0.31-2.35-0.92-3.07C127.96,5.4,127.11,5.04,126.03,5.04z"/>
			<path class="st0" d="M140.04,10.12c0,2.82-1.27,4.22-3.81,4.22c-2.43,0-3.65-1.35-3.65-4.06V4.15h1.17v6.06
				c0,2.06,0.87,3.08,2.6,3.08c1.67,0,2.51-0.99,2.51-2.98V4.15h1.17V10.12z"/>
			<path class="st0" d="M142.54,14.18V4.15h2.77c3.53,0,5.3,1.63,5.3,4.89c0,1.55-0.49,2.79-1.47,3.73s-2.3,1.41-3.94,1.41H142.54z
				 M143.72,5.21v7.9h1.5c1.32,0,2.34-0.35,3.07-1.06c0.73-0.7,1.1-1.7,1.1-2.99c0-2.57-1.37-3.85-4.1-3.85H143.72z"/>
			<path class="st0" d="M163.44,14.18H162l-2.31-3.84c-0.07-0.12-0.15-0.28-0.23-0.5h-0.03c-0.05,0.11-0.13,0.27-0.24,0.5
				l-2.38,3.84h-1.44l3.36-5.04l-3.09-4.99h1.44l2.05,3.52c0.14,0.23,0.25,0.47,0.36,0.7h0.03c0.15-0.31,0.28-0.55,0.39-0.73
				l2.13-3.5h1.35l-3.15,4.97L163.44,14.18z"/>
		</g>
	</g>
</g>
<g id="P">
	<g>
		<g>
		</g>
	</g>
	<g>
		<g>
		</g>
	</g>
	<g>
		<g>
			<path class="st0" d="M21.17,12.12v5.98h-1.85V2.28h4.35c1.69,0,3,0.41,3.93,1.24c0.93,0.82,1.4,1.99,1.4,3.49
				s-0.52,2.73-1.55,3.69c-1.03,0.96-2.43,1.43-4.19,1.43H21.17z M21.17,3.96v6.49h1.94c1.28,0,2.26-0.29,2.93-0.88
				c0.67-0.58,1.01-1.41,1.01-2.48c0-2.09-1.24-3.13-3.71-3.13H21.17z"/>
		</g>
	</g>
</g>
<g id="x">
	<g>
		<g>
			<path class="st1" d="M28.02,13.98l-1.37,2.07L28,18.07h-0.76l-0.8-1.32c-0.05-0.08-0.11-0.19-0.18-0.31h-0.02
				c-0.01,0.02-0.08,0.13-0.19,0.31l-0.82,1.32h-0.75l1.39-2l-1.33-2.08h0.76l0.79,1.4c0.06,0.1,0.12,0.21,0.17,0.32h0.02l1.02-1.72
				H28.02z"/>
		</g>
	</g>
</g>
</svg>
